<svg width="55" height="55" viewBox="0 0 55 55" fill="none" xmlns="http://www.w3.org/2000/svg">
<path d="M53.8545 38.9582L42.3962 50.4166L34.3753 42.3957L37.8128 38.9582L42.3962 43.5416L50.417 35.5208L53.8545 38.9582ZM13.7503 4.58325C11.2066 4.58325 9.16699 6.62284 9.16699 9.16658V45.8332C9.16699 48.377 11.2066 50.4166 13.7503 50.4166H31.6482C30.4337 48.3312 29.792 45.9478 29.792 43.5416C29.792 42.7853 29.8607 42.0062 29.9753 41.2499H13.7503V36.6666H31.6482C32.7024 34.8333 34.1691 33.2291 35.9337 32.0833H13.7503V27.4999H41.2503V29.9749C42.0066 29.8603 42.7857 29.7916 43.542 29.7916C44.3212 29.7916 45.0774 29.8603 45.8337 29.9749V18.3333L32.0837 4.58325M29.792 8.02075L42.3962 20.6249H29.792V8.02075Z" fill="#205ED7"/>
</svg>
