<svg width="62" height="62" viewBox="0 0 62 62" fill="none" xmlns="http://www.w3.org/2000/svg">
<path d="M43.4 15.5H49.6V58.9H12.4V15.5H18.6V12.4C18.6 10.7556 19.2532 9.17861 20.4159 8.01589C21.5787 6.85316 23.1557 6.19995 24.8 6.19995H37.2C38.8443 6.19995 40.4213 6.85316 41.5841 8.01589C42.7468 9.17861 43.4 10.7556 43.4 12.4V15.5ZM52.7 15.5H55.8C57.4443 15.5 59.0213 16.1532 60.1841 17.3159C61.3468 18.4786 62 20.0556 62 21.7V52.7C62 54.3443 61.3468 55.9213 60.1841 57.084C59.0213 58.2467 57.4443 58.9 55.8 58.9H52.7V15.5ZM9.3 15.5V58.9H6.2C4.55566 58.9 2.97866 58.2467 1.81594 57.084C0.653212 55.9213 0 54.3443 0 52.7V21.7C0 18.29 2.79 15.5 6.2 15.5H9.3ZM24.8 12.4V15.5H37.2V12.4H24.8Z" fill="#205ED7"/>
</svg>
