<svg width="55" height="49" viewBox="0 0 55 49" fill="none" xmlns="http://www.w3.org/2000/svg">
<g clip-path="url(#clip0_321_591)">
<path d="M54.9811 24.4522C54.9811 26.1748 53.5488 27.5242 51.9256 27.5242H48.87L48.9369 42.8559C48.9369 43.1143 48.9178 43.3727 48.8891 43.6311V45.1814C48.8891 47.2965 47.1799 49.0096 45.0697 49.0096H43.5419C43.4368 49.0096 43.3318 49.0096 43.2268 49C43.0931 49.0096 42.9594 49.0096 42.8257 49.0096L39.7224 49H37.4308C35.3205 49 33.6113 47.2869 33.6113 45.1719V36.75C33.6113 35.0561 32.2459 33.6875 30.5558 33.6875H24.4447C22.7546 33.6875 21.3891 35.0561 21.3891 36.75V45.1719C21.3891 47.2869 19.6799 49 17.5697 49H12.232C12.0888 49 11.9455 48.9904 11.8023 48.9809C11.6877 48.9904 11.5731 49 11.4586 49H9.93077C7.82053 49 6.11133 47.2869 6.11133 45.1719V34.4531C6.11133 34.367 6.11133 34.2713 6.12088 34.1852V27.5147H3.06532C1.34657 27.5147 0.00976562 26.1748 0.00976562 24.4426C0.00976562 23.5813 0.296224 22.8156 0.964627 22.1457L25.4377 0.765625C26.1061 0.0957031 26.87 0 27.5384 0C28.2068 0 28.9707 0.191406 29.5436 0.669922L53.9308 22.1553C54.6947 22.8252 55.0766 23.5908 54.9811 24.4522Z" fill="#205ED7"/>
</g>
<defs>
<clipPath id="clip0_321_591">
<rect width="55" height="49" fill="white"/>
</clipPath>
</defs>
</svg>
