<svg width="70" height="70" viewBox="0 0 70 70" fill="none" xmlns="http://www.w3.org/2000/svg">
<g clip-path="url(#clip0_321_616)">
<path d="M33.2501 12C37.2401 11.9997 41.1494 13.1228 44.5309 15.2406C47.9124 17.3584 50.6293 20.3854 52.3707 23.9752C54.1121 27.5651 54.8077 31.5726 54.3779 35.5393C53.9481 39.506 52.4101 43.2715 49.9401 46.405L59.0701 55.535C59.5255 56.0065 59.7775 56.638 59.7718 57.2935C59.7661 57.949 59.5032 58.576 59.0397 59.0395C58.5762 59.5031 57.9491 59.766 57.2936 59.7717C56.6382 59.7774 56.0066 59.5254 55.5351 59.07L46.4051 49.94C43.7438 52.0374 40.6194 53.4679 37.2927 54.1123C33.966 54.7566 30.5335 54.5961 27.2814 53.644C24.0294 52.6919 21.0522 50.976 18.5982 48.6393C16.1443 46.3026 14.2847 43.413 13.1746 40.2115C12.0645 37.0099 11.7362 33.5894 12.2169 30.2351C12.6977 26.8809 13.9736 23.6902 15.9382 20.9294C17.9029 18.1685 20.4993 15.9176 23.5108 14.3642C26.5223 12.8109 29.8616 12.0003 33.2501 12ZM33.2501 17C28.9404 17 24.8071 18.712 21.7597 21.7595C18.7122 24.807 17.0001 28.9402 17.0001 33.25C17.0001 37.5598 18.7122 41.693 21.7597 44.7405C24.8071 47.788 28.9404 49.5 33.2501 49.5C37.5599 49.5 41.6932 47.788 44.7406 44.7405C47.7881 41.693 49.5001 37.5598 49.5001 33.25C49.5001 28.9402 47.7881 24.807 44.7406 21.7595C41.6932 18.712 37.5599 17 33.2501 17ZM33.2501 19.5C36.8969 19.5 40.3942 20.9487 42.9729 23.5273C45.5515 26.1059 47.0001 29.6033 47.0001 33.25C47.0001 36.8967 45.5515 40.3941 42.9729 42.9727C40.3942 45.5513 36.8969 47 33.2501 47C29.6034 47 26.1061 45.5513 23.5274 42.9727C20.9488 40.3941 19.5001 36.8967 19.5001 33.25C19.5001 29.6033 20.9488 26.1059 23.5274 23.5273C26.1061 20.9487 29.6034 19.5 33.2501 19.5Z" fill="#205ED7"/>
</g>
<defs>
<clipPath id="clip0_321_616">
<rect width="60" height="60" fill="white" transform="translate(7 7)"/>
</clipPath>
</defs>
</svg>
