<svg width="214" height="65" viewBox="0 0 214 65" fill="none" xmlns="http://www.w3.org/2000/svg">
<g clip-path="url(#clip0_1373_2185)">
<g filter="url(#filter0_d_1373_2185)">
<path d="M0 32.5C0 14.5507 14.5507 0 32.5 0H181.5C199.449 0 214 14.5507 214 32.5C214 50.4493 199.449 65 181.5 65H32.5C14.5508 65 0 50.4493 0 32.5Z" fill="white"/>
</g>
<path d="M191.543 40.9593L194.39 38.7754C198.284 35.7874 201.337 31.8399 203.251 27.3204L205.356 22.3506C207.905 16.3331 218.4 12.0101 222.422 10.5451V48.1866C222.422 64.0998 209.522 77 193.609 77H154.263C147.43 77 143.439 69.2957 147.379 63.7138C147.959 62.8912 148.683 62.1793 149.515 61.6119L157.059 56.466C162.195 52.9628 167.918 50.4094 173.955 48.9269L175.99 48.4272C181.636 47.041 186.932 44.4981 191.543 40.9593Z" fill="#FE8E0A"/>
<path d="M222.422 10V48.1866C222.422 64.0998 209.522 77 193.609 77H154.263C147.43 77 143.439 69.2957 147.379 63.7138C147.959 62.8912 148.683 62.1793 149.515 61.6119L157.059 56.466C162.195 52.9628 167.918 50.4094 173.955 48.9269L175.99 48.4272C181.636 47.041 186.932 44.4981 191.543 40.9593L194.39 38.7754C198.284 35.7874 201.337 31.8399 203.251 27.3204C203.98 25.6005 204.669 23.9734 205.356 22.3506C208.527 14.8637 224 10 224 10" stroke="#002978" stroke-width="2"/>
<g filter="url(#filter1_d_1373_2185)">
<path d="M32.5 1H181.5C198.897 1 213 15.103 213 32.5C213 49.897 198.897 64 181.5 64H32.5C15.103 64 1 49.897 1 32.5C1 15.375 14.6655 1.44222 31.6865 1.01074L32.5 1Z" stroke="#002978" stroke-width="2" shape-rendering="crispEdges"/>
</g>
</g>
<defs>
<filter id="filter0_d_1373_2185" x="-21" y="-17" width="256" height="107" filterUnits="userSpaceOnUse" color-interpolation-filters="sRGB">
<feFlood flood-opacity="0" result="BackgroundImageFix"/>
<feColorMatrix in="SourceAlpha" type="matrix" values="0 0 0 0 0 0 0 0 0 0 0 0 0 0 0 0 0 0 127 0" result="hardAlpha"/>
<feOffset dy="4"/>
<feGaussianBlur stdDeviation="10.5"/>
<feComposite in2="hardAlpha" operator="out"/>
<feColorMatrix type="matrix" values="0 0 0 0 0 0 0 0 0 0 0 0 0 0 0 0 0 0 0.25 0"/>
<feBlend mode="normal" in2="BackgroundImageFix" result="effect1_dropShadow_1373_2185"/>
<feBlend mode="normal" in="SourceGraphic" in2="effect1_dropShadow_1373_2185" result="shape"/>
</filter>
<filter id="filter1_d_1373_2185" x="-21" y="-17" width="256" height="107" filterUnits="userSpaceOnUse" color-interpolation-filters="sRGB">
<feFlood flood-opacity="0" result="BackgroundImageFix"/>
<feColorMatrix in="SourceAlpha" type="matrix" values="0 0 0 0 0 0 0 0 0 0 0 0 0 0 0 0 0 0 127 0" result="hardAlpha"/>
<feOffset dy="4"/>
<feGaussianBlur stdDeviation="10.5"/>
<feComposite in2="hardAlpha" operator="out"/>
<feColorMatrix type="matrix" values="0 0 0 0 0 0 0 0 0 0 0 0 0 0 0 0 0 0 0.25 0"/>
<feBlend mode="normal" in2="BackgroundImageFix" result="effect1_dropShadow_1373_2185"/>
<feBlend mode="normal" in="SourceGraphic" in2="effect1_dropShadow_1373_2185" result="shape"/>
</filter>
<clipPath id="clip0_1373_2185">
<rect width="214" height="65" rx="32.5" fill="white"/>
</clipPath>
</defs>
</svg>
